<svg width="158" height="33" viewBox="0 0 158 33" fill="none" xmlns="http://www.w3.org/2000/svg">
<path d="M0.0732826 29V19.4951C1.4441 20.3188 2.86904 20.736 3.41016 20.8416H12.8797C14.6112 21.6654 13.9619 23.1386 12.8797 23.6139H3.41016V26.2277H13.6011C19.4801 23.6139 16.3236 18.8614 13.6011 18.4654H3.95127C-3.08317 15.6931 0.794803 10.703 3.95127 10.4653H12.8797C12.8797 10.4653 13.9619 10.8614 13.9619 11.8911C13.9619 13.0792 12.8797 13.2376 12.8797 13.2376H4.49238C4.49238 13.2376 3.41015 13.4752 3.41016 14.4257C3.41017 15.3762 4.49238 15.6931 4.49238 15.6931H13.6011C24.9645 18.8614 18.9221 29 12.8797 29H0.0732826Z" fill="#1890FF"/>
<path d="M13.059 7.85149C16.6664 8.40594 17.3879 12.0495 16.2155 13.7129L18.7407 15.0594C22.2038 8.59604 16.6364 5.66007 13.4198 5L0.0722656 5.07921V9.19802C1.65953 8.18416 3.07846 7.87789 3.58951 7.85149H13.059Z" fill="#1890FF"/>
<path d="M34.714 16.08C35.6087 16.2707 36.3273 16.718 36.87 17.422C37.4127 18.1113 37.684 18.9033 37.684 19.798C37.684 21.0887 37.2293 22.1153 36.32 22.878C35.4253 23.626 34.1713 24 32.558 24H25.364V8.556H32.316C33.8853 8.556 35.11 8.91533 35.99 9.634C36.8847 10.3527 37.332 11.328 37.332 12.56C37.332 13.4693 37.09 14.2247 36.606 14.826C36.1367 15.4273 35.506 15.8453 34.714 16.08ZM29.126 14.804H31.59C32.206 14.804 32.6753 14.672 32.998 14.408C33.3353 14.1293 33.504 13.726 33.504 13.198C33.504 12.67 33.3353 12.2667 32.998 11.988C32.6753 11.7093 32.206 11.57 31.59 11.57H29.126V14.804ZM31.898 20.964C32.5287 20.964 33.0127 20.8247 33.35 20.546C33.702 20.2527 33.878 19.8347 33.878 19.292C33.878 18.7493 33.6947 18.324 33.328 18.016C32.976 17.708 32.4847 17.554 31.854 17.554H29.126V20.964H31.898ZM51.988 11.724V24H48.226V22.328C47.8446 22.8707 47.324 23.3107 46.664 23.648C46.0186 23.9707 45.3 24.132 44.508 24.132C43.5693 24.132 42.7406 23.9267 42.022 23.516C41.3033 23.0907 40.746 22.482 40.35 21.69C39.954 20.898 39.756 19.9667 39.756 18.896V11.724H43.496V18.39C43.496 19.2113 43.7086 19.8493 44.134 20.304C44.5593 20.7587 45.1313 20.986 45.85 20.986C46.5833 20.986 47.1626 20.7587 47.588 20.304C48.0133 19.8493 48.226 19.2113 48.226 18.39V11.724H51.988ZM53.9422 17.84C53.9422 16.5787 54.1768 15.4713 54.6462 14.518C55.1302 13.5647 55.7828 12.8313 56.6042 12.318C57.4255 11.8047 58.3422 11.548 59.3542 11.548C60.1608 11.548 60.8942 11.7167 61.5542 12.054C62.2288 12.3913 62.7568 12.846 63.1382 13.418V7.72H66.9002V24H63.1382V22.24C62.7862 22.8267 62.2802 23.296 61.6202 23.648C60.9748 24 60.2195 24.176 59.3542 24.176C58.3422 24.176 57.4255 23.9193 56.6042 23.406C55.7828 22.878 55.1302 22.1373 54.6462 21.184C54.1768 20.216 53.9422 19.1013 53.9422 17.84ZM63.1382 17.862C63.1382 16.9233 62.8742 16.1827 62.3462 15.64C61.8328 15.0973 61.2022 14.826 60.4542 14.826C59.7062 14.826 59.0682 15.0973 58.5402 15.64C58.0268 16.168 57.7702 16.9013 57.7702 17.84C57.7702 18.7787 58.0268 19.5267 58.5402 20.084C59.0682 20.6267 59.7062 20.898 60.4542 20.898C61.2022 20.898 61.8328 20.6267 62.3462 20.084C62.8742 19.5413 63.1382 18.8007 63.1382 17.862ZM68.8738 17.84C68.8738 16.5787 69.1085 15.4713 69.5778 14.518C70.0618 13.5647 70.7145 12.8313 71.5358 12.318C72.3571 11.8047 73.2738 11.548 74.2858 11.548C75.0925 11.548 75.8258 11.7167 76.4858 12.054C77.1605 12.3913 77.6885 12.846 78.0698 13.418V7.72H81.8318V24H78.0698V22.24C77.7178 22.8267 77.2118 23.296 76.5518 23.648C75.9065 24 75.1511 24.176 74.2858 24.176C73.2738 24.176 72.3571 23.9193 71.5358 23.406C70.7145 22.878 70.0618 22.1373 69.5778 21.184C69.1085 20.216 68.8738 19.1013 68.8738 17.84ZM78.0698 17.862C78.0698 16.9233 77.8058 16.1827 77.2778 15.64C76.7645 15.0973 76.1338 14.826 75.3858 14.826C74.6378 14.826 73.9998 15.0973 73.4718 15.64C72.9585 16.168 72.7018 16.9013 72.7018 17.84C72.7018 18.7787 72.9585 19.5267 73.4718 20.084C73.9998 20.6267 74.6378 20.898 75.3858 20.898C76.1338 20.898 76.7645 20.6267 77.2778 20.084C77.8058 19.5413 78.0698 18.8007 78.0698 17.862ZM97.0935 11.724L89.3935 29.83H85.3455L88.1615 23.582L83.1675 11.724H87.3695L90.2075 19.402L93.0235 11.724H97.0935ZM103.36 24.154C102.363 24.154 101.49 23.978 100.742 23.626C99.9938 23.274 99.4072 22.7973 98.9818 22.196C98.5712 21.5947 98.3365 20.9273 98.2778 20.194H99.3118C99.4292 21.0007 99.8032 21.7193 100.434 22.35C101.079 22.9807 102.055 23.296 103.36 23.296C104.123 23.296 104.783 23.1567 105.34 22.878C105.912 22.5993 106.352 22.218 106.66 21.734C106.968 21.25 107.122 20.7147 107.122 20.128C107.122 19.38 106.939 18.786 106.572 18.346C106.22 17.906 105.773 17.576 105.23 17.356C104.702 17.136 103.983 16.9013 103.074 16.652C102.077 16.388 101.27 16.124 100.654 15.86C100.053 15.596 99.5392 15.1927 99.1138 14.65C98.7032 14.0927 98.4978 13.3373 98.4978 12.384C98.4978 11.6507 98.6885 10.9833 99.0698 10.382C99.4658 9.766 100.023 9.282 100.742 8.93C101.461 8.578 102.289 8.402 103.228 8.402C104.592 8.402 105.692 8.73933 106.528 9.414C107.364 10.0887 107.863 10.9173 108.024 11.9H106.968C106.88 11.504 106.682 11.1007 106.374 10.69C106.081 10.2793 105.655 9.942 105.098 9.678C104.555 9.39933 103.903 9.26 103.14 9.26C102.113 9.26 101.248 9.546 100.544 10.118C99.8398 10.6753 99.4878 11.4233 99.4878 12.362C99.4878 13.11 99.6712 13.7113 100.038 14.166C100.405 14.606 100.852 14.9433 101.38 15.178C101.923 15.398 102.649 15.6253 103.558 15.86C104.57 16.1387 105.369 16.41 105.956 16.674C106.557 16.9233 107.063 17.3267 107.474 17.884C107.899 18.4267 108.112 19.1673 108.112 20.106C108.112 20.7953 107.929 21.448 107.562 22.064C107.195 22.68 106.653 23.186 105.934 23.582C105.23 23.9633 104.372 24.154 103.36 24.154ZM110.459 18.016C110.459 16.7693 110.701 15.684 111.185 14.76C111.684 13.836 112.366 13.132 113.231 12.648C114.111 12.1493 115.116 11.9 116.245 11.9C117.741 11.9 118.966 12.274 119.919 13.022C120.887 13.77 121.489 14.7747 121.723 16.036H120.689C120.499 15.0093 120 14.2027 119.193 13.616C118.401 13.0293 117.419 12.736 116.245 12.736C115.365 12.736 114.566 12.934 113.847 13.33C113.129 13.7113 112.549 14.3053 112.109 15.112C111.684 15.904 111.471 16.872 111.471 18.016C111.471 19.1747 111.684 20.15 112.109 20.942C112.549 21.734 113.129 22.328 113.847 22.724C114.566 23.12 115.365 23.318 116.245 23.318C117.419 23.318 118.401 23.0247 119.193 22.438C120 21.8513 120.499 21.0447 120.689 20.018H121.723C121.489 21.2647 120.887 22.2693 119.919 23.032C118.951 23.7947 117.727 24.176 116.245 24.176C115.116 24.176 114.111 23.9267 113.231 23.428C112.366 22.9293 111.684 22.218 111.185 21.294C110.701 20.3553 110.459 19.2627 110.459 18.016ZM125.73 14.518C126.023 13.638 126.544 12.9707 127.292 12.516C128.04 12.0467 128.993 11.812 130.152 11.812V12.846H129.822C128.648 12.846 127.673 13.1833 126.896 13.858C126.118 14.518 125.73 15.6033 125.73 17.114V24H124.74V12.054H125.73V14.518ZM132.937 9.392C132.702 9.392 132.504 9.31867 132.343 9.172C132.182 9.01067 132.101 8.798 132.101 8.534C132.101 8.28467 132.182 8.07933 132.343 7.918C132.504 7.75667 132.702 7.676 132.937 7.676C133.172 7.676 133.37 7.75667 133.531 7.918C133.692 8.07933 133.773 8.28467 133.773 8.534C133.773 8.798 133.692 9.01067 133.531 9.172C133.37 9.31867 133.172 9.392 132.937 9.392ZM133.421 12.054V24H132.431V12.054H133.421ZM138.04 15.2C138.377 14.232 138.986 13.44 139.866 12.824C140.761 12.208 141.839 11.9 143.1 11.9C144.215 11.9 145.205 12.1493 146.07 12.648C146.95 13.1467 147.632 13.858 148.116 14.782C148.615 15.706 148.864 16.784 148.864 18.016C148.864 19.248 148.615 20.3333 148.116 21.272C147.632 22.196 146.95 22.9147 146.07 23.428C145.205 23.9267 144.215 24.176 143.1 24.176C141.853 24.176 140.783 23.868 139.888 23.252C139.008 22.6213 138.392 21.8293 138.04 20.876V29.632H137.05V12.054H138.04V15.2ZM147.852 18.016C147.852 16.9307 147.647 15.992 147.236 15.2C146.825 14.408 146.246 13.8067 145.498 13.396C144.765 12.9707 143.914 12.758 142.946 12.758C142.022 12.758 141.186 12.978 140.438 13.418C139.69 13.8433 139.103 14.4593 138.678 15.266C138.253 16.058 138.04 16.9747 138.04 18.016C138.04 19.072 138.253 20.0033 138.678 20.81C139.103 21.602 139.69 22.218 140.438 22.658C141.186 23.0833 142.022 23.296 142.946 23.296C143.914 23.296 144.765 23.0833 145.498 22.658C146.246 22.2327 146.825 21.624 147.236 20.832C147.647 20.04 147.852 19.1013 147.852 18.016ZM153.327 12.912V20.81C153.327 21.69 153.488 22.2987 153.811 22.636C154.133 22.9587 154.705 23.12 155.527 23.12H156.869V24H155.373C154.331 24 153.561 23.758 153.063 23.274C152.579 22.7753 152.337 21.954 152.337 20.81V12.912H150.533V12.054H152.337V9.018H153.327V12.054H156.869V12.912H153.327Z" fill="#1890FF"/>
</svg>
